PathFileType	4	(X/Y/Z)	c:/Users/goper/Files/vsCode/490R/osim_files/C17/C17_Slow_02.trc
DataRate	CameraRate	NumFrames	NumMarkers	Units                	OrigDataRate	OrigDataStartFrame	OrigNumFrames
250.00	250.00	10	36	mm	250.0	948	2527
                Frame#	Time	LPSIS			LASIS			LTH1			LTH2			LTH3			LTH4			LLFE			LMFE			LSH1			LSH2			LSH3			LSH4			LLMAL			LMMAL			LCAL			LMTP5			LTOE			LMTP1			RPSIS			RASIS			RTH1			RTH2			RTH3			RTH4			RLFE			RMFE			RSH1			RSH2			RSH3			RSH4			RLMAL			RMMAL			RCAL			RMTP1			RTOE			RMTP5		
		X1	Y1	Z1	X2	Y2	Z2	X3	Y3	Z3	X4	Y4	Z4	X5	Y5	Z5	X6	Y6	Z6	X7	Y7	Z7	X8	Y8	Z8	X9	Y9	Z9	X10	Y10	Z10	X11	Y11	Z11	X12	Y12	Z12	X13	Y13	Z13	X14	Y14	Z14	X15	Y15	Z15	X16	Y16	Z16	X17	Y17	Z17	X18	Y18	Z18	X19	Y19	Z19	X20	Y20	Z20	X21	Y21	Z21	X22	Y22	Z22	X23	Y23	Z23	X24	Y24	Z24	X25	Y25	Z25	X26	Y26	Z26	X27	Y27	Z27	X28	Y28	Z28	X29	Y29	Z29	X30	Y30	Z30	X31	Y31	Z31	X32	Y32	Z32	X33	Y33	Z33	X34	Y34	Z34	X35	Y35	Z35	X36	Y36	Z36

948	3.78800	129.45000	1052.21362	328.17667	-70.98599	1008.80084	413.81076	-88.74140	678.14020	434.62991	-113.71707	641.18652	426.08020	-143.02034	706.56213	440.92117	-160.55563	666.90326	431.31265	-179.41673	499.96912	388.10437	-173.52551	507.65732	263.74268	-124.55441	270.13419	380.30237	-126.31906	227.38997	375.12970	-186.08606	267.21021	376.26920	-178.39801	224.39807	370.23969	-133.34311	91.16952	351.24619	-145.70235	100.19604	262.72955	-57.56508	51.78911	309.43121	-252.07288	41.97375	370.49579	-308.00583	60.88702	301.39053	-288.69061	41.32930	252.92397	126.89102	1046.28955	253.96698	-50.30844	1005.29700	146.13777	50.83551	718.73224	93.31332	53.93272	672.51941	100.21337	-9.15926	711.19391	101.45872	1.90735	665.04626	102.80724	80.18207	455.82458	113.88966	61.87816	466.21207	239.33020	278.68747	383.26288	122.37151	309.93207	351.61374	135.00421	236.35696	336.42053	122.20205	272.54987	308.42474	134.74146	426.90659	229.88441	170.51822	396.16412	223.48897	253.54697	479.90088	286.58514	208.05859	414.88867	80.32263	289.62531	389.22946	66.50237	245.75545	447.64450	84.68336	177.95270
949	3.79200	123.85995	1053.12390	328.32291	-76.57769	1009.66547	414.07602	-92.67281	678.62677	434.90375	-117.60165	641.38116	426.33737	-146.79105	707.18127	441.05887	-164.19371	666.89679	431.60403	-181.99387	499.80676	388.38394	-175.58240	507.26544	264.01886	-125.74827	270.29767	380.51959	-127.46068	227.52580	375.28308	-187.32127	266.97421	376.54001	-179.45468	224.20341	370.44858	-133.49759	91.23726	351.25491	-145.86461	100.24581	262.78156	-57.69547	51.94248	309.42313	-252.08841	41.92602	370.53052	-308.12744	60.68342	301.40082	-288.80536	41.15506	253.07324	121.54948	1047.02686	254.10641	-55.61865	1006.06543	146.27400	43.12727	718.78760	93.25056	45.66278	672.53375	100.02214	-16.88083	711.91028	101.31904	-6.41782	665.59845	102.56510	69.68888	455.92200	113.28137	51.36777	466.26401	238.92870	268.40344	384.43893	121.87979	299.87439	352.93018	134.35912	226.93324	337.27573	121.52894	262.79230	309.65344	134.02243	418.45450	232.78215	168.85556	387.10693	225.16963	252.58115	469.28818	289.88870	207.28522	408.62918	81.65768	288.54987	383.94699	66.62175	245.22258	441.63544	87.24986	177.07954
950	3.79600	118.29156	1054.09314	328.48709	-82.07787	1010.56140	414.30270	-96.34036	679.20801	435.10040	-121.11401	641.54120	426.19116	-150.52368	707.33868	441.64844	-167.85182	666.92468	431.88171	-184.50526	499.70181	388.65204	-177.49580	506.86621	264.31680	-127.05030	270.47433	380.66141	-128.31241	227.76059	375.41489	-188.50745	266.78296	376.71289	-180.41695	224.05473	370.60760	-133.61859	91.34545	351.25754	-145.99760	100.29476	262.82401	-57.78188	52.07888	309.41696	-252.12039	41.88067	370.55270	-308.22137	60.50459	301.40125	-288.87082	41.06171	253.09506	116.18197	1047.80505	254.24396	-60.03263	1007.16241	145.23705	35.38494	718.87750	93.24725	37.86019	672.84601	99.77292	-24.78486	712.61584	101.29494	-14.73133	666.23676	102.38514	59.35768	456.10925	112.80342	40.84743	466.41129	238.40149	258.08298	385.55298	121.30505	289.72433	354.24741	133.74623	216.40063	338.19351	120.91277	252.85771	310.69019	133.32651	409.47726	234.74280	167.79132	378.49084	226.72386	251.66370	459.07254	292.43500	206.78723	401.67319	82.99817	287.26416	377.48822	68.18335	243.46411	434.66367	89.41888	176.23888
951	3.80000	112.80871	1055.11572	328.63345	-88.02538	1011.72040	414.48419	-100.05995	679.74689	435.36267	-123.61752	642.55072	426.37320	-154.55740	707.08447	441.75436	-171.78708	665.92035	431.63373	-186.93172	499.63040	388.86472	-179.47453	506.59628	264.60617	-127.97974	270.71487	380.90988	-129.22873	227.89746	375.53714	-189.56488	266.60632	376.97406	-181.19858	223.94231	370.77322	-133.73288	91.43166	351.28815	-146.10689	100.36382	262.87970	-57.85033	52.26978	309.42624	-252.16179	41.86130	370.57330	-308.29840	60.36046	301.40393	-288.90286	40.89339	253.15822	110.80513	1048.61694	254.39522	-65.22788	1008.15747	145.31709	27.55626	719.03076	93.21734	29.12681	672.69995	99.70543	-32.55876	713.36603	101.14835	-23.09058	666.88898	102.21648	49.16589	456.36581	112.65498	30.49849	466.61090	238.01389	248.00610	386.67542	120.73771	279.44525	355.39734	133.01157	206.21033	339.02191	120.29772	242.83765	311.69760	132.56354	400.48227	236.73167	166.93629	368.99146	227.97284	250.84457	449.36453	294.96454	206.63422	393.83218	84.76434	285.66510	369.71521	70.09379	241.06888	427.65308	92.24473	174.46483
952	3.80400	107.39043	1056.15576	328.71381	-93.58716	1012.76910	414.68417	-103.83255	680.26837	435.70792	-127.06757	642.95483	426.68732	-158.35793	707.32874	442.12109	-175.20425	666.12964	432.00214	-189.29318	499.48947	389.13013	-181.54227	506.35312	264.97284	-129.05074	270.93005	381.11258	-130.06863	228.08040	375.72537	-190.58954	266.41064	377.14572	-182.00267	223.85211	370.99985	-133.81918	91.54417	351.30164	-146.22462	100.45144	262.95377	-57.94689	52.42861	309.43448	-252.22107	41.87210	370.57327	-308.38513	60.22952	301.37817	-288.90778	40.99660	253.04239	105.51277	1049.48120	254.50421	-70.17595	1009.14722	145.31479	19.72847	719.25262	93.14282	20.79280	672.89612	99.55379	-40.43582	714.21942	100.93974	-31.51977	667.60754	101.94488	38.72618	456.69058	110.43347	20.31609	467.00357	237.60669	237.49878	387.69711	120.01884	269.19495	356.61853	132.20743	195.99146	339.83987	119.57498	232.92041	312.75424	131.62985	391.67123	238.99985	166.07518	359.47247	229.42442	250.05089	439.89981	297.22531	206.73087	384.73062	86.38129	283.87579	360.93182	71.91891	238.86621	419.22736	94.65185	172.84404
953	3.80800	101.96767	1057.32056	328.82452	-98.84992	1013.78558	414.75977	-107.45264	680.80316	436.08795	-130.41406	643.36176	427.05286	-162.14124	707.75043	442.51678	-178.79236	666.25275	432.28461	-191.43291	499.41092	389.44751	-183.65955	506.17480	265.36337	-129.90678	271.20132	381.31219	-130.72453	228.25529	375.85623	-191.59668	266.32343	377.42270	-182.37663	223.89821	371.22549	-133.91574	91.66663	351.32895	-146.32582	100.53682	263.02124	-58.02549	52.62964	309.40607	-252.25844	41.87740	370.59839	-308.44501	60.13365	301.35287	-288.96680	40.80460	253.13425	100.22615	1050.43408	254.63007	-75.22921	1010.19220	145.35815	11.97389	719.59741	93.07391	12.42753	673.17285	99.41697	-48.37855	715.07507	100.82758	-39.82072	668.43262	101.67635	28.17559	457.13440	109.83649	9.90534	467.51099	237.02266	226.47765	388.79068	119.17235	258.92657	357.78384	131.30742	185.91182	340.71576	118.82898	223.08012	313.88037	130.67647	382.80322	241.46707	165.31271	349.42484	231.08055	249.50972	430.67792	299.26208	207.02147	374.36093	87.57153	281.80072	351.11948	73.61745	236.39099	409.90799	96.94758	171.15843
954	3.81200	96.58006	1058.42847	328.96036	-104.20591	1014.76166	414.83392	-111.05347	681.45728	436.50562	-133.74246	643.86823	427.46756	-166.07059	708.12897	442.73114	-182.39755	666.50861	432.58121	-193.43317	499.36835	389.80798	-185.75546	506.02628	265.74429	-131.00215	271.37616	381.57666	-131.50125	228.49471	376.11130	-192.53778	266.14838	377.67810	-183.22346	223.83258	371.42383	-134.03673	91.78088	351.37341	-146.42906	100.63150	263.12311	-58.08027	52.95935	309.48111	-252.33449	41.86834	370.61673	-308.50809	60.03025	301.35150	-289.01407	40.78717	253.14717	94.88293	1051.36658	254.74843	-80.40842	1011.30096	145.37193	4.07126	719.95007	93.04541	4.12422	673.52386	99.25474	-56.24144	716.06079	100.64088	-48.14542	669.26788	101.61585	17.49225	457.24075	109.84331	-0.08895	468.33847	236.42279	216.15094	389.29144	118.04779	248.76872	359.03610	130.43889	175.81801	341.69012	118.06879	212.94850	314.91583	130.07216	373.05472	243.31593	165.23152	339.77124	232.91873	248.61133	421.46414	301.05621	207.58463	363.46323	88.76918	279.60593	340.35678	75.23518	234.20959	399.74207	99.08231	169.32217
955	3.81600	91.15621	1059.52295	329.08743	-109.90994	1015.90143	414.89749	-114.46220	682.13184	436.87332	-136.92171	644.37018	427.96356	-169.78195	708.49976	442.96646	-185.81519	666.81726	432.91138	-195.36853	499.25180	390.09875	-187.78058	505.96277	266.14737	-131.70297	271.60526	381.84781	-132.11545	228.69585	376.35873	-193.45361	266.09329	377.96921	-184.30957	223.62059	371.61859	-134.12059	91.89449	351.41626	-146.51245	100.72871	263.20767	-58.11515	53.07367	309.36975	-252.33260	41.87468	370.65878	-308.56885	59.94307	301.34772	-289.02069	40.76445	253.14044	89.68048	1052.37219	254.90717	-85.42586	1012.42133	145.40277	-3.80758	720.40497	92.99510	-4.16958	673.96429	99.05498	-64.17170	717.05280	100.47471	-56.93809	670.03705	102.36751	7.62605	458.21762	108.67512	-10.15709	468.85196	236.03024	206.05544	390.43784	117.12386	238.74254	360.38364	129.59576	165.78319	342.71945	117.33528	202.52898	315.86026	129.79527	364.33957	245.81647	164.20477	329.38934	234.34398	248.16949	412.52609	302.36426	208.06001	351.94623	89.66281	277.35132	329.19916	76.52571	231.48981	388.96216	100.92458	167.37163
956	3.82000	85.78870	1060.69763	329.26721	-115.49133	1016.96381	414.91998	-116.47946	683.53619	437.65912	-140.10515	644.89801	428.45203	-171.41048	710.60242	443.75867	-189.03185	667.10779	433.25049	-197.21877	499.18805	390.41220	-189.77251	505.95096	266.54581	-132.62642	271.78067	382.16165	-132.86394	228.79001	376.56824	-194.28023	265.93192	378.29913	-184.47240	223.68414	371.90952	-134.20128	92.00395	351.47659	-146.57439	100.82684	263.33380	-58.14917	53.29089	309.38052	-252.35231	41.85826	370.69653	-308.60211	59.86853	301.36545	-288.99936	40.99624	252.97209	84.53116	1053.41638	255.10825	-90.51215	1013.57806	145.39796	-11.70138	720.88159	92.88760	-12.46533	674.44104	98.91831	-72.10276	718.02472	100.51144	-65.21664	671.03217	102.90865	-2.62760	458.98920	107.94326	-19.97327	469.84857	235.41316	196.24213	392.27277	116.72677	228.72476	361.76544	128.86801	156.19179	344.31415	116.59238	191.94478	316.76907	129.70886	355.23911	247.66154	163.77664	319.54239	235.68987	247.46884	403.24960	302.97641	208.81610	339.45325	89.91830	274.94540	316.64383	77.98985	228.67908	377.48529	102.47305	165.34099
957	3.82400	80.53028	1061.85657	329.42392	-120.91090	1017.98505	414.91763	-119.48070	684.44946	438.30072	-143.27554	645.41461	428.99561	-174.38501	711.50751	444.22766	-192.43591	667.28845	433.61179	-198.92181	499.12299	390.84262	-191.83548	506.00497	266.92984	-133.32265	271.98514	382.52600	-133.61487	228.93446	376.80249	-195.16634	265.81641	378.58734	-185.16502	223.57991	372.17416	-134.26736	92.10663	351.54202	-146.62752	100.96429	263.46106	-58.20116	53.48487	309.37000	-252.37727	41.85315	370.72977	-308.62921	59.77378	301.37650	-289.01691	41.00362	252.96896	79.23817	1054.45093	255.25372	-95.59714	1014.74072	145.41159	-19.54800	721.56055	92.74645	-20.88932	675.00952	98.74165	-80.02405	719.25165	100.60040	-73.97874	672.05701	100.62701	-12.77659	459.94818	107.21291	-29.68933	470.80054	234.90100	186.24251	393.60138	115.94028	218.68013	363.07935	128.24763	145.57478	345.02362	116.02594	181.31917	317.69766	129.67595	345.59232	249.18394	163.45343	308.86227	236.63631	247.13521	394.07892	303.23773	209.57091	326.90466	90.27468	272.55780	303.89551	79.03840	226.12778	365.58368	103.82736	163.20911
